<svg width="700" height="900" viewBox="0 0 7 9" fill="none" xmlns="http://www.w3.org/2000/svg">
<path d="M5.12132 1.12132L5.47487 0.767767V0.767767L5.12132 1.12132ZM1.5 4H5.5V3H1.5V4ZM6 4.5V7.5H7V4.5H6ZM5.5 8H1.5V9H5.5V8ZM1 7.5V4.5H0V7.5H1ZM1.5 8C1.22386 8 1 7.77614 1 7.5H0C0 8.32843 0.671573 9 1.5 9V8ZM6 7.5C6 7.77614 5.77614 8 5.5 8V9C6.32843 9 7 8.32843 7 7.5H6ZM5.5 4C5.77614 4 6 4.22386 6 4.5H7C7 3.67157 6.32843 3 5.5 3V4ZM1.5 3C0.671573 3 0 3.67157 0 4.5H1C1 4.22386 1.22386 4 1.5 4V3ZM2 3.5V2.62132H1V3.5H2ZM4.76777 1.47487L5.14645 1.85355L5.85355 1.14645L5.47487 0.767767L4.76777 1.47487ZM3.62132 1C4.05132 1 4.46371 1.17082 4.76777 1.47487L5.47487 0.767767C4.98328 0.276174 4.31654 0 3.62132 0V1ZM2 2.62132C2 1.72589 2.72589 1 3.62132 1V0C2.17361 0 1 1.17361 1 2.62132H2Z" fill="black"/>
</svg>
