<svg width="700" height="900" viewBox="0 0 7 9" fill="none" xmlns="http://www.w3.org/2000/svg">
<path d="M1.5 4H5.5V3H1.5V4ZM6 4.5V7.5H7V4.5H6ZM5.5 8H1.5V9H5.5V8ZM1 7.5V4.5H0V7.5H1ZM1.5 8C1.22386 8 1 7.77614 1 7.5H0C0 8.32843 0.671573 9 1.5 9V8ZM6 7.5C6 7.77614 5.77614 8 5.5 8V9C6.32843 9 7 8.32843 7 7.5H6ZM5.5 4C5.77614 4 6 4.22386 6 4.5H7C7 3.67157 6.32843 3 5.5 3V4ZM1.5 3C0.671573 3 0 3.67157 0 4.5H1C1 4.22386 1.22386 4 1.5 4V3ZM2 3.5V2.5H1V3.5H2ZM5 2.5V3.5H6V2.5H5ZM3.5 1C4.32843 1 5 1.67157 5 2.5H6C6 1.11929 4.88071 0 3.5 0V1ZM2 2.5C2 1.67157 2.67157 1 3.5 1V0C2.11929 0 1 1.11929 1 2.5H2Z" fill="black"/>
</svg>
